<mxfile host="app.diagrams.net" agent="Mozilla/5.0 (Windows NT 10.0; Win64; x64) AppleWebKit/537.36 (KHTML, like Gecko) Chrome/140.0.0.0 Safari/537.36" version="28.2.7">
  <diagram id="2KMxQPSyfM8LnSYBEzyI" name="Pagina-1">
    <mxGraphModel dx="3923" dy="872" grid="1" gridSize="10" guides="1" tooltips="1" connect="1" arrows="1" fold="1" page="1" pageScale="1" pageWidth="2339" pageHeight="3300" math="0" shadow="0">
      <root>
        <mxCell id="0" />
        <mxCell id="1" parent="0" />
        <mxCell id="swzpSNI4EfpC9RJouUge-33" value="" style="rounded=0;whiteSpace=wrap;html=1;dashed=1;" vertex="1" parent="1">
          <mxGeometry x="-1385" y="260" width="500" height="950" as="geometry" />
        </mxCell>
        <mxCell id="swzpSNI4EfpC9RJouUge-34" value="Supermercato" style="text;html=1;align=center;verticalAlign=middle;whiteSpace=wrap;rounded=0;fontSize=20;fontStyle=1" vertex="1" parent="1">
          <mxGeometry x="-1305" y="220" width="290" height="30" as="geometry" />
        </mxCell>
        <mxCell id="swzpSNI4EfpC9RJouUge-35" value="Utente non registrato" style="shape=umlActor;verticalLabelPosition=bottom;verticalAlign=top;html=1;outlineConnect=0;" vertex="1" parent="1">
          <mxGeometry x="-1495" y="290" width="30" height="60" as="geometry" />
        </mxCell>
        <mxCell id="swzpSNI4EfpC9RJouUge-36" value="Registrazione" style="ellipse;whiteSpace=wrap;html=1;" vertex="1" parent="1">
          <mxGeometry x="-1239" y="290" width="140" height="50" as="geometry" />
        </mxCell>
        <mxCell id="swzpSNI4EfpC9RJouUge-37" value="Visualizzazione cataloghi" style="ellipse;whiteSpace=wrap;html=1;" vertex="1" parent="1">
          <mxGeometry x="-1239" y="370" width="140" height="50" as="geometry" />
        </mxCell>
        <mxCell id="swzpSNI4EfpC9RJouUge-38" value="" style="endArrow=none;html=1;rounded=0;entryX=1;entryY=1;entryDx=0;entryDy=0;entryPerimeter=0;exitX=0;exitY=0.5;exitDx=0;exitDy=0;" edge="1" parent="1" source="swzpSNI4EfpC9RJouUge-37" target="swzpSNI4EfpC9RJouUge-35">
          <mxGeometry width="50" height="50" relative="1" as="geometry">
            <mxPoint x="-1295" y="325" as="sourcePoint" />
            <mxPoint x="-1470" y="330" as="targetPoint" />
          </mxGeometry>
        </mxCell>
        <mxCell id="swzpSNI4EfpC9RJouUge-39" value="Utente registrato" style="shape=umlActor;verticalLabelPosition=bottom;verticalAlign=top;html=1;outlineConnect=0;" vertex="1" parent="1">
          <mxGeometry x="-1495" y="400" width="30" height="60" as="geometry" />
        </mxCell>
        <mxCell id="swzpSNI4EfpC9RJouUge-40" value="" style="endArrow=none;html=1;rounded=0;entryX=1;entryY=0.3333333333333333;entryDx=0;entryDy=0;entryPerimeter=0;exitX=0;exitY=0.5;exitDx=0;exitDy=0;" edge="1" parent="1" source="swzpSNI4EfpC9RJouUge-36" target="swzpSNI4EfpC9RJouUge-35">
          <mxGeometry width="50" height="50" relative="1" as="geometry">
            <mxPoint x="-1295" y="385" as="sourcePoint" />
            <mxPoint x="-1455" y="360" as="targetPoint" />
          </mxGeometry>
        </mxCell>
        <mxCell id="swzpSNI4EfpC9RJouUge-41" value="Login" style="ellipse;whiteSpace=wrap;html=1;" vertex="1" parent="1">
          <mxGeometry x="-1239" y="440" width="140" height="50" as="geometry" />
        </mxCell>
        <mxCell id="swzpSNI4EfpC9RJouUge-42" value="" style="endArrow=none;html=1;rounded=0;exitX=1;exitY=0.3333333333333333;exitDx=0;exitDy=0;exitPerimeter=0;entryX=0;entryY=0.5;entryDx=0;entryDy=0;" edge="1" parent="1" source="swzpSNI4EfpC9RJouUge-39" target="swzpSNI4EfpC9RJouUge-41">
          <mxGeometry width="50" height="50" relative="1" as="geometry">
            <mxPoint x="-1245" y="410" as="sourcePoint" />
            <mxPoint x="-1195" y="360" as="targetPoint" />
          </mxGeometry>
        </mxCell>
        <mxCell id="swzpSNI4EfpC9RJouUge-43" value="" style="endArrow=none;html=1;rounded=0;exitX=0.75;exitY=0.1;exitDx=0;exitDy=0;exitPerimeter=0;entryX=0;entryY=1;entryDx=0;entryDy=0;" edge="1" parent="1" source="swzpSNI4EfpC9RJouUge-39" target="swzpSNI4EfpC9RJouUge-37">
          <mxGeometry width="50" height="50" relative="1" as="geometry">
            <mxPoint x="-1245" y="410" as="sourcePoint" />
            <mxPoint x="-1195" y="360" as="targetPoint" />
          </mxGeometry>
        </mxCell>
        <mxCell id="swzpSNI4EfpC9RJouUge-44" value="Acquisto prodotti" style="ellipse;whiteSpace=wrap;html=1;" vertex="1" parent="1">
          <mxGeometry x="-1239" y="550" width="140" height="50" as="geometry" />
        </mxCell>
        <mxCell id="swzpSNI4EfpC9RJouUge-45" value="" style="endArrow=classic;html=1;rounded=0;exitX=0.5;exitY=0.5;exitDx=0;exitDy=0;exitPerimeter=0;entryX=0;entryY=0.5;entryDx=0;entryDy=0;endFill=1;" edge="1" parent="1" source="swzpSNI4EfpC9RJouUge-39" target="swzpSNI4EfpC9RJouUge-44">
          <mxGeometry width="50" height="50" relative="1" as="geometry">
            <mxPoint x="-1455" y="430" as="sourcePoint" />
            <mxPoint x="-1295" y="465" as="targetPoint" />
          </mxGeometry>
        </mxCell>
        <mxCell id="swzpSNI4EfpC9RJouUge-46" value="Sistema bancario" style="shape=umlActor;verticalLabelPosition=bottom;verticalAlign=top;html=1;outlineConnect=0;" vertex="1" parent="1">
          <mxGeometry x="-835" y="570" width="30" height="60" as="geometry" />
        </mxCell>
        <mxCell id="swzpSNI4EfpC9RJouUge-47" value="" style="endArrow=classic;html=1;rounded=0;exitX=1;exitY=0.5;exitDx=0;exitDy=0;entryX=0.5;entryY=0.5;entryDx=0;entryDy=0;entryPerimeter=0;endFill=1;" edge="1" parent="1" source="swzpSNI4EfpC9RJouUge-44" target="swzpSNI4EfpC9RJouUge-46">
          <mxGeometry width="50" height="50" relative="1" as="geometry">
            <mxPoint x="-1470" y="440" as="sourcePoint" />
            <mxPoint x="-1295" y="545" as="targetPoint" />
          </mxGeometry>
        </mxCell>
        <mxCell id="swzpSNI4EfpC9RJouUge-48" value="Gestione account" style="ellipse;whiteSpace=wrap;html=1;" vertex="1" parent="1">
          <mxGeometry x="-1239" y="630" width="140" height="50" as="geometry" />
        </mxCell>
        <mxCell id="swzpSNI4EfpC9RJouUge-49" value="" style="endArrow=none;html=1;rounded=0;exitX=1;exitY=1;exitDx=0;exitDy=0;exitPerimeter=0;entryX=0;entryY=0.5;entryDx=0;entryDy=0;" edge="1" parent="1" source="swzpSNI4EfpC9RJouUge-39" target="swzpSNI4EfpC9RJouUge-48">
          <mxGeometry width="50" height="50" relative="1" as="geometry">
            <mxPoint x="-1455" y="430" as="sourcePoint" />
            <mxPoint x="-1295" y="465" as="targetPoint" />
          </mxGeometry>
        </mxCell>
        <mxCell id="swzpSNI4EfpC9RJouUge-57" value="Gestione cataloghi" style="ellipse;whiteSpace=wrap;html=1;" vertex="1" parent="1">
          <mxGeometry x="-1239" y="710" width="140" height="50" as="geometry" />
        </mxCell>
        <mxCell id="swzpSNI4EfpC9RJouUge-61" value="Admin" style="shape=umlActor;verticalLabelPosition=bottom;verticalAlign=top;html=1;outlineConnect=0;" vertex="1" parent="1">
          <mxGeometry x="-815" y="810" width="30" height="60" as="geometry" />
        </mxCell>
        <mxCell id="swzpSNI4EfpC9RJouUge-62" value="" style="endArrow=none;html=1;rounded=0;exitX=1;exitY=1;exitDx=0;exitDy=0;entryX=0;entryY=0.3333333333333333;entryDx=0;entryDy=0;entryPerimeter=0;" edge="1" parent="1" source="swzpSNI4EfpC9RJouUge-41" target="swzpSNI4EfpC9RJouUge-61">
          <mxGeometry width="50" height="50" relative="1" as="geometry">
            <mxPoint x="-1155" y="465" as="sourcePoint" />
            <mxPoint x="-990" y="650" as="targetPoint" />
          </mxGeometry>
        </mxCell>
        <mxCell id="swzpSNI4EfpC9RJouUge-65" value="" style="endArrow=none;html=1;rounded=0;exitX=1;exitY=1;exitDx=0;exitDy=0;" edge="1" parent="1" source="swzpSNI4EfpC9RJouUge-57" target="swzpSNI4EfpC9RJouUge-61">
          <mxGeometry width="50" height="50" relative="1" as="geometry">
            <mxPoint x="-1155" y="855" as="sourcePoint" />
            <mxPoint x="-1005" y="840" as="targetPoint" />
          </mxGeometry>
        </mxCell>
        <mxCell id="swzpSNI4EfpC9RJouUge-66" value="" style="endArrow=none;html=1;rounded=0;exitX=1;exitY=1;exitDx=0;exitDy=0;entryX=0.5;entryY=0;entryDx=0;entryDy=0;entryPerimeter=0;" edge="1" parent="1" source="swzpSNI4EfpC9RJouUge-48" target="swzpSNI4EfpC9RJouUge-61">
          <mxGeometry width="50" height="50" relative="1" as="geometry">
            <mxPoint x="-1175" y="803" as="sourcePoint" />
            <mxPoint x="-1005" y="809" as="targetPoint" />
          </mxGeometry>
        </mxCell>
        <mxCell id="swzpSNI4EfpC9RJouUge-67" value="&amp;lt;&amp;lt;include&amp;gt;&amp;gt;" style="endArrow=classic;endSize=12;dashed=1;html=1;rounded=0;exitX=0.5;exitY=0;exitDx=0;exitDy=0;entryX=0.5;entryY=1;entryDx=0;entryDy=0;endFill=1;" edge="1" parent="1" source="swzpSNI4EfpC9RJouUge-44" target="swzpSNI4EfpC9RJouUge-41">
          <mxGeometry width="160" relative="1" as="geometry">
            <mxPoint x="-1225" y="500" as="sourcePoint" />
            <mxPoint x="-1065" y="500" as="targetPoint" />
          </mxGeometry>
        </mxCell>
        <mxCell id="swzpSNI4EfpC9RJouUge-69" value="&amp;lt;&amp;lt;include&amp;gt;&amp;gt;" style="endArrow=classic;endSize=12;dashed=1;html=1;rounded=0;exitX=0;exitY=0;exitDx=0;exitDy=0;entryX=0;entryY=1;entryDx=0;entryDy=0;endFill=1;" edge="1" parent="1" source="swzpSNI4EfpC9RJouUge-48" target="swzpSNI4EfpC9RJouUge-41">
          <mxGeometry width="160" relative="1" as="geometry">
            <mxPoint x="-1225" y="490" as="sourcePoint" />
            <mxPoint x="-1225" y="460" as="targetPoint" />
            <Array as="points">
              <mxPoint x="-1365" y="570" />
              <mxPoint x="-1365" y="450" />
            </Array>
            <mxPoint as="offset" />
          </mxGeometry>
        </mxCell>
        <mxCell id="swzpSNI4EfpC9RJouUge-72" value="Utente over 75" style="shape=umlActor;verticalLabelPosition=bottom;verticalAlign=top;html=1;" vertex="1" parent="1">
          <mxGeometry x="-1555" y="530" width="30" height="60" as="geometry" />
        </mxCell>
        <mxCell id="swzpSNI4EfpC9RJouUge-74" value="" style="endArrow=block;html=1;rounded=0;exitX=0.5;exitY=0;exitDx=0;exitDy=0;exitPerimeter=0;entryX=0;entryY=0.3333333333333333;entryDx=0;entryDy=0;entryPerimeter=0;endFill=0;" edge="1" parent="1" source="swzpSNI4EfpC9RJouUge-72" target="swzpSNI4EfpC9RJouUge-39">
          <mxGeometry width="50" height="50" relative="1" as="geometry">
            <mxPoint x="-1505" y="520" as="sourcePoint" />
            <mxPoint x="-1455" y="470" as="targetPoint" />
          </mxGeometry>
        </mxCell>
        <mxCell id="swzpSNI4EfpC9RJouUge-80" value="Spedizione" style="ellipse;whiteSpace=wrap;html=1;" vertex="1" parent="1">
          <mxGeometry x="-1239" y="800" width="140" height="50" as="geometry" />
        </mxCell>
        <mxCell id="swzpSNI4EfpC9RJouUge-81" value="" style="endArrow=classic;html=1;rounded=0;entryX=0;entryY=0.5;entryDx=0;entryDy=0;endFill=1;" edge="1" parent="1" source="swzpSNI4EfpC9RJouUge-72">
          <mxGeometry width="50" height="50" relative="1" as="geometry">
            <mxPoint x="-1480" y="665" as="sourcePoint" />
            <mxPoint x="-1239" y="810" as="targetPoint" />
          </mxGeometry>
        </mxCell>
        <mxCell id="swzpSNI4EfpC9RJouUge-83" value="" style="endArrow=classic;html=1;rounded=0;endFill=1;" edge="1" parent="1">
          <mxGeometry width="50" height="50" relative="1" as="geometry">
            <mxPoint x="-1099" y="840" as="sourcePoint" />
            <mxPoint x="-850" y="940" as="targetPoint" />
          </mxGeometry>
        </mxCell>
        <mxCell id="swzpSNI4EfpC9RJouUge-84" value="Sistema spedizione" style="shape=umlActor;verticalLabelPosition=bottom;verticalAlign=top;html=1;outlineConnect=0;" vertex="1" parent="1">
          <mxGeometry x="-845" y="920" width="30" height="60" as="geometry" />
        </mxCell>
      </root>
    </mxGraphModel>
  </diagram>
</mxfile>
